<?xml version="1.0" encoding="utf-8"?>
<svg viewBox="249.423 66.954 121.11 122.318" xmlns="http://www.w3.org/2000/svg">
  <path class="st0" d="M 370.333 91.052 C 370.453 90.672 370.503 90.292 370.513 89.902 C 370.513 89.852 370.533 89.802 370.533 89.752 C 370.533 89.722 370.523 89.692 370.523 89.662 C 370.513 89.262 370.453 88.862 370.333 88.482 C 370.303 88.402 370.273 88.322 370.243 88.242 C 370.113 87.882 369.943 87.542 369.723 87.222 C 369.713 87.202 369.703 87.182 369.683 87.162 C 369.453 86.842 369.163 86.562 368.843 86.312 C 368.763 86.252 368.693 86.192 368.613 86.142 C 368.533 86.082 368.463 86.012 368.373 85.962 C 368.103 85.802 367.813 85.672 367.523 85.582 C 367.513 85.582 367.513 85.572 367.503 85.572 L 311.353 67.172 C 310.463 66.882 309.503 66.882 308.603 67.172 L 252.453 85.572 C 252.443 85.572 252.443 85.582 252.433 85.582 C 252.143 85.682 251.863 85.802 251.583 85.962 C 251.493 86.012 251.423 86.082 251.343 86.142 C 251.263 86.202 251.183 86.252 251.113 86.312 C 250.793 86.562 250.503 86.842 250.273 87.162 C 250.253 87.182 250.253 87.202 250.233 87.232 C 250.013 87.552 249.843 87.892 249.713 88.252 C 249.683 88.332 249.653 88.412 249.623 88.492 C 249.503 88.872 249.443 89.272 249.433 89.672 C 249.433 89.702 249.423 89.732 249.423 89.762 C 249.423 89.812 249.443 89.862 249.443 89.912 C 249.453 90.302 249.513 90.682 249.623 91.062 C 249.633 91.092 249.633 91.132 249.643 91.162 C 249.743 91.452 249.863 91.732 250.023 92.002 L 306.173 187.112 C 306.223 187.202 306.303 187.262 306.353 187.342 C 306.453 187.482 306.553 187.602 306.663 187.732 C 306.853 187.952 307.063 188.142 307.283 188.322 C 307.403 188.412 307.513 188.502 307.633 188.582 C 307.963 188.792 308.313 188.952 308.673 189.062 C 308.723 189.072 308.753 189.112 308.803 189.122 C 308.813 189.122 308.823 189.122 308.833 189.122 C 309.173 189.212 309.523 189.252 309.873 189.262 C 309.903 189.262 309.933 189.272 309.963 189.272 C 309.963 189.272 309.963 189.272 309.963 189.272 C 309.963 189.272 309.963 189.272 309.963 189.272 C 310.073 189.272 310.183 189.242 310.283 189.232 C 310.553 189.212 310.823 189.192 311.083 189.122 C 311.173 189.102 311.253 189.042 311.343 189.012 C 311.623 188.922 311.903 188.812 312.163 188.662 C 312.173 188.652 312.183 188.652 312.193 188.652 C 312.483 188.482 312.743 188.272 312.973 188.052 C 313.033 188.002 313.083 187.932 313.133 187.872 C 313.323 187.672 313.503 187.452 313.643 187.212 C 313.673 187.172 313.713 187.132 313.743 187.092 L 369.893 91.982 C 370.053 91.712 370.183 91.422 370.273 91.142 C 370.323 91.122 370.323 91.082 370.333 91.052 Z M 309.983 75.992 L 351.963 89.752 L 309.983 103.512 L 268.003 89.752 L 309.983 75.992 Z M 305.573 168.712 L 263.583 97.582 L 305.573 111.342 L 305.573 168.712 Z M 314.393 111.352 L 356.383 97.592 L 314.393 168.712 L 314.393 111.352 Z" style="fill: rgb(255, 255, 255)"/>
</svg>